<?xml version="1.0" encoding="UTF-8" standalone="no"?>
<!DOCTYPE svg PUBLIC "-//W3C//DTD SVG 1.1//EN"
 "http://www.w3.org/Graphics/SVG/1.1/DTD/svg11.dtd">
<!-- Generated by graphviz version 2.44.1 (20200629.0846)
 -->
<!-- Pages: 1 -->
<svg width="236pt" height="264pt"
 viewBox="0.00 0.00 236.00 264.00" xmlns="http://www.w3.org/2000/svg" xmlns:xlink="http://www.w3.org/1999/xlink">
<g id="graph0" class="graph" transform="scale(1 1) rotate(0) translate(4 260)">
<polygon fill="white" stroke="transparent" points="-4,4 -4,-260 232,-260 232,4 -4,4"/>
<text text-anchor="middle" x="114" y="-240.8" font-family="Times,serif" font-size="14.00">Shallow Clone</text>
<g id="clust1" class="cluster">
<title>cluster_source_table</title>
<polygon fill="none" stroke="black" points="8,-8 8,-225 112,-225 112,-8 8,-8"/>
<text text-anchor="middle" x="60" y="-209.8" font-family="Times,serif" font-size="14.00">Source Table</text>
</g>
<g id="clust2" class="cluster">
<title>cluster_cloned_table</title>
<polygon fill="none" stroke="black" points="132,-114 132,-225 222,-225 222,-114 132,-114"/>
<text text-anchor="middle" x="177" y="-209.8" font-family="Times,serif" font-size="14.00">Cloned Table</text>
</g>
<!-- ab -->
<g id="node1" class="node">
<title>ab</title>
<polygon fill="#ffab00" stroke="#98102a" points="95.5,-193.5 24.5,-193.5 24.5,-122.5 95.5,-122.5 95.5,-193.5"/>
<text text-anchor="middle" x="60" y="-154.3" font-family="Times,serif" font-size="14.00">Delta Log</text>
</g>
<!-- bd -->
<g id="node3" class="node">
<title>bd</title>
<polygon fill="#ffab00" stroke="#98102a" points="212,-193.5 141,-193.5 141,-122.5 212,-122.5 212,-193.5"/>
<text text-anchor="middle" x="176.5" y="-154.3" font-family="Times,serif" font-size="14.00">Delta Log</text>
</g>
<!-- ab&#45;&gt;bd -->
<g id="edge1" class="edge">
<title>ab&#45;&gt;bd</title>
<path fill="none" stroke="black" d="M95.66,-158C106.76,-158 119.21,-158 130.91,-158"/>
<polygon fill="black" stroke="black" points="130.95,-161.5 140.95,-158 130.95,-154.5 130.95,-161.5"/>
</g>
<!-- ac -->
<g id="node2" class="node">
<title>ac</title>
<polygon fill="#ffab00" stroke="#98102a" points="104,-104 16,-104 16,-16 104,-16 104,-104"/>
<text text-anchor="middle" x="60" y="-56.3" font-family="Times,serif" font-size="14.00">Parquet Files</text>
</g>
</g>
</svg>
