<?xml version="1.0" encoding="UTF-8" standalone="no"?>
<!DOCTYPE svg PUBLIC "-//W3C//DTD SVG 1.1//EN"
 "http://www.w3.org/Graphics/SVG/1.1/DTD/svg11.dtd">
<!-- Generated by graphviz version 2.44.1 (20200629.0846)
 -->
<!-- Pages: 1 -->
<svg width="252pt" height="264pt"
 viewBox="0.00 0.00 252.00 264.00" xmlns="http://www.w3.org/2000/svg" xmlns:xlink="http://www.w3.org/1999/xlink">
<g id="graph0" class="graph" transform="scale(1 1) rotate(0) translate(4 260)">
<polygon fill="white" stroke="transparent" points="-4,4 -4,-260 248,-260 248,4 -4,4"/>
<text text-anchor="middle" x="122" y="-240.8" font-family="Times,serif" font-size="14.00">Deep Clone</text>
<g id="clust1" class="cluster">
<title>cluster_source_table</title>
<polygon fill="none" stroke="black" points="8,-8 8,-225 112,-225 112,-8 8,-8"/>
<text text-anchor="middle" x="60" y="-209.8" font-family="Times,serif" font-size="14.00">Source Table</text>
</g>
<g id="clust2" class="cluster">
<title>cluster_cloned_table</title>
<polygon fill="none" stroke="black" points="132,-8 132,-225 236,-225 236,-8 132,-8"/>
<text text-anchor="middle" x="184" y="-209.8" font-family="Times,serif" font-size="14.00">Cloned Table</text>
</g>
<!-- sourcelog -->
<g id="node1" class="node">
<title>sourcelog</title>
<polygon fill="#ffab00" stroke="#98102a" points="95.5,-193.5 24.5,-193.5 24.5,-122.5 95.5,-122.5 95.5,-193.5"/>
<text text-anchor="middle" x="60" y="-154.3" font-family="Times,serif" font-size="14.00">Delta Log</text>
</g>
<!-- destlog -->
<g id="node3" class="node">
<title>destlog</title>
<polygon fill="#ffab00" stroke="#98102a" points="219.5,-193.5 148.5,-193.5 148.5,-122.5 219.5,-122.5 219.5,-193.5"/>
<text text-anchor="middle" x="184" y="-154.3" font-family="Times,serif" font-size="14.00">Delta Log</text>
</g>
<!-- sourcelog&#45;&gt;destlog -->
<g id="edge1" class="edge">
<title>sourcelog&#45;&gt;destlog</title>
<path fill="none" stroke="black" d="M95.63,-158C108.77,-158 123.93,-158 137.89,-158"/>
<polygon fill="black" stroke="black" points="138.28,-161.5 148.28,-158 138.28,-154.5 138.28,-161.5"/>
</g>
<!-- sourcefiles -->
<g id="node2" class="node">
<title>sourcefiles</title>
<polygon fill="#ffab00" stroke="#98102a" points="104,-104 16,-104 16,-16 104,-16 104,-104"/>
<text text-anchor="middle" x="60" y="-56.3" font-family="Times,serif" font-size="14.00">Parquet Files</text>
</g>
<!-- destfiles -->
<g id="node4" class="node">
<title>destfiles</title>
<polygon fill="#ffab00" stroke="#98102a" points="228,-104 140,-104 140,-16 228,-16 228,-104"/>
<text text-anchor="middle" x="184" y="-56.3" font-family="Times,serif" font-size="14.00">Parquet Files</text>
</g>
<!-- sourcefiles&#45;&gt;destfiles -->
<g id="edge2" class="edge">
<title>sourcefiles&#45;&gt;destfiles</title>
<path fill="none" stroke="black" d="M104.01,-60C112.4,-60 121.28,-60 129.94,-60"/>
<polygon fill="black" stroke="black" points="129.96,-63.5 139.96,-60 129.96,-56.5 129.96,-63.5"/>
</g>
</g>
</svg>
